#!OML:ASF \\sashay\E\basketball\basketball\Project 1\Capture day 1\Session 1\Subject.ASF
:FULLY-SPECIFIED
:DEGREES
528
root 18.51 13.0916 -3.61136 -178.542 -15.3738 -166.796
lowerback 41.9603 1.52027 4.89405
upperback 12.2388 -0.252836 4.17641
thorax -6.17137 -1.99497 2.22293
lowerneck -7.30906 -1.59182 -14.31
upperneck -29.2869 -1.76273 23.2193
head -7.07977 -3.43134 11.1917
rclavicle 1.90833e-014 3.18055e-014
rhumerus -1.15751 -1.84179 -70.8752
rradius 48.3076
rwrist -11.6066
rhand -37.3347 55.3555
rfingers 7.12502
rthumb -10.3976 25.6326
lclavicle 1.90833e-014 3.18055e-014
lhumerus -21.0818 7.50732 50.7611
lradius 90.9446
lwrist 19.6519
lhand -30.7012 4.33075
lfingers 7.12502
lthumb -3.99465 34.273
rfemur -19.7424 -21.9208 2.67897
rtibia 43.5482
rfoot -3.46741 -11.9704
rtoes -58.0845
lfemur -63.4936 31.0453 -16.8682
ltibia 88.3891
lfoot -17.0227 -11.9427
ltoes 12.3869
529
root 18.2854 13.1821 -3.66929 -178.831 -15.9409 -166.137
lowerback 41.1291 1.63357 4.76626
upperback 12.0181 0.0125821 4.66162
thorax -6.19144 -1.82841 2.68377
lowerneck -7.07432 -1.97169 -14.0582
upperneck -28.4836 -2.12944 24.156
head -6.71797 -3.63733 11.4078
rclavicle -3.73715e-014 3.10104e-014
rhumerus -3.40672 -3.80231 -70.4333
rradius 48.3898
rwrist -12.202
rhand -37.9675 55.2765
rfingers 7.12502
rthumb -11.008 25.5851
lclavicle -3.73715e-014 3.10104e-014
lhumerus -21.6839 6.19691 49.8924
lradius 91.6617
lwrist 19.7269
lhand -31.2218 3.98409
lfingers 7.12502
lthumb -4.49736 33.9163
rfemur -17.0753 -20.3751 2.81177
rtibia 39.9485
rfoot -0.900555 -12.6752
rtoes -58.0583
lfemur -62.4005 30.6544 -16.9874
ltibia 87.6812
lfoot -17.4669 -11.7843
ltoes 12.2067
530
root 18.0522 13.2787 -3.73016 -179.027 -16.3953 -165.542
lowerback 40.1567 1.79 4.82251
upperback 11.792 0.401797 5.09256
thorax -6.16476 -1.59097 2.94286
lowerneck -6.82329 -2.51923 -14.277
upperneck -27.5359 -2.67927 25.2287
head -6.25417 -3.85911 11.7431
rclavicle -3.02153e-014 -1.31198e-014
rhumerus -5.82133 -5.76294 -69.6631
rradius 48.6571
rwrist -13.4092
rhand -38.6249 55.0561
rfingers 7.12502
rthumb -11.642 25.3995
lclavicle -3.02153e-014 -1.31198e-014
lhumerus -21.9454 4.41202 49.1286
lradius 92.2897
lwrist 20.3513
lhand -31.7064 4.10234
lfingers 7.12502
lthumb -4.96524 34.0242
rfemur -14.6961 -18.724 3.06431
rtibia 36.4983
rfoot 1.64646 -14.1623
rtoes -57.636
lfemur -61.2714 30.2693 -17.2102
ltibia 86.895
lfoot -18.043 -11.3435
ltoes 11.4242
531
root 17.8128 13.3882 -3.78496 -179.004 -16.7837 -165.118
lowerback 39.1282 1.89335 4.50725
upperback 11.5424 0.587306 5.47385
thorax -6.15368 -1.44511 3.42108
lowerneck -6.64318 -2.99182 -14.62
upperneck -26.5523 -3.16328 26.4342
head -5.77084 -4.06167 12.1556
rclavicle -1.70955e-014 -5.4467e-014
rhumerus -7.83253 -7.12497 -69.1174
rradius 48.8495
rwrist -14.6956
rhand -39.5499 54.6404
rfingers 7.12502
rthumb -12.5338 25.0363
lclavicle -1.70955e-014 -5.4467e-014
lhumerus -22.5642 2.83495 48.0817
lradius 92.9784
lwrist 21.0534
lhand -32.0226 4.8794
lfingers 7.12502
lthumb -5.27056 34.7939
rfemur -12.8848 -16.6958 3.38188
rtibia 33.5396
rfoot 3.60344 -17.3992
rtoes -55.5768
lfemur -60.1943 29.6262 -17.6141
ltibia 85.9773
lfoot -18.6191 -10.6426
ltoes 9.94723
532
root 17.57 13.492 -3.83128 -178.641 -17.1182 -164.998
lowerback 38.0064 2.09494 4.03545
upperback 11.1819 0.894005 5.92347
thorax -6.24373 -1.22655 4.01288
lowerneck -6.66997 -3.60627 -14.9004
upperneck -25.4996 -3.89528 27.176
head -5.19825 -4.32134 12.3327
rclavicle 1.59028e-014 -4.37326e-015
rhumerus -10.0006 -8.37018 -67.9383
rradius 49.1713
rwrist -15.9977
rhand -40.1514 54.1524
rfingers 7.12502
rthumb -13.1137 24.5848
lclavicle 1.59028e-014 -4.37326e-015
lhumerus -23.0294 1.00163 47.3609
lradius 93.5324
lwrist 21.8053
lhand -31.8635 5.50075
lfingers 7.12502
lthumb -5.11692 35.419
rfemur -11.8577 -14.4521 3.55942
rtibia 31.3094
rfoot -0.101683 -22.2505
rtoes -44.9207
lfemur -59.5704 29.0763 -18.4775
ltibia 85.0431
lfoot -18.7074 -10.3508
ltoes 9.96786
533
root 17.3264 13.5736 -3.87163 -178.117 -17.3171 -165.003
lowerback 36.8394 2.20495 3.60331
upperback 10.7932 1.10421 6.10058
thorax -6.32369 -1.03199 4.33287
lowerneck -6.94566 -3.91914 -14.8647
upperneck -24.2095 -4.26075 27.605
head -4.62942 -4.37812 12.3145
rclavicle 3.93594e-014 -5.80451e-014
rhumerus -12.2401 -9.34193 -66.8421
rradius 49.6967
rwrist -17.152
rhand -40.2728 53.7094
rfingers 7.12502
rthumb -13.2307 24.1493
lclavicle 3.93594e-014 -5.80451e-014
lhumerus -23.4957 -0.898431 46.2902
lradius 94.0251
lwrist 22.6692
lhand -31.5734 5.35369
lfingers 7.12502
lthumb -4.83686 35.2785
rfemur -11.5401 -12.2974 3.71412
rtibia 29.9254
rfoot -11.0269 -23.9427
rtoes -5.10288
lfemur -59.2841 28.8702 -19.5627
ltibia 84.1904
lfoot -18.3603 -10.6484
ltoes 12.4552
534
root 17.0571 13.6564 -3.90339 -177.674 -17.6609 -165.045
lowerback 35.7406 2.0208 3.74872
upperback 10.5123 1.10215 6.04
thorax -6.37502 -0.931389 4.14108
lowerneck -7.14275 -4.17601 -14.4864
upperneck -23.3061 -4.60717 27.9244
head -4.22486 -4.49766 12.2358
rclavicle -4.49253e-014 -4.05521e-014
rhumerus -14.3807 -10.2574 -65.8103
rradius 50.3011
rwrist -17.996
rhand -40.0367 53.4847
rfingers 7.12502
rthumb -13.0031 23.91
lclavicle -4.49253e-014 -4.05521e-014
lhumerus -23.9804 -2.75771 45.0543
lradius 94.5408
lwrist 23.0674
lhand -31.4239 4.93354
lfingers 7.12502
lthumb -4.69247 34.8616
rfemur -11.6285 -11.2679 3.90626
rtibia 29.468
rfoot -12.0402 -26.1639
rtoes 3.92352
lfemur -58.7283 28.086 -20.6017
ltibia 83.2964
lfoot -17.9893 -10.6252
ltoes 14.9785
535
root 16.7795 13.7532 -3.93453 -177.354 -17.2528 -165.12
lowerback 34.9662 2.22763 3.70974
upperback 10.2324 1.47953 6.06529
thorax -6.43041 -0.690353 4.04284
lowerneck -7.2381 -4.52536 -14.4595
upperneck -22.7339 -5.06699 28.0913
head -3.91436 -4.65515 12.1953
rclavicle -3.49861e-014 7.55382e-014
rhumerus -16.2455 -11.3993 -64.4193
rradius 50.6718
rwrist -17.9278
rhand -39.5926 53.2929
rfingers 7.12502
rthumb -12.575 23.6913
lclavicle -3.49861e-014 7.55382e-014
lhumerus -24.5761 -4.54374 44.0863
lradius 95.0595
lwrist 23.0445
lhand -31.4618 4.81486
lfingers 7.12502
lthumb -4.72908 34.7421
rfemur -12.4719 -11.2559 4.28301
rtibia 29.9631
rfoot -7.23315 -25.8717
rtoes -15.1208
lfemur -57.7323 27.9481 -21.5577
ltibia 82.3424
lfoot -17.8043 -10.26
ltoes 15.5853
536
root 16.4899 13.8413 -3.96063 -177.247 -17.0218 -165.268
lowerback 34.4855 2.24878 3.82983
upperback 9.97711 1.64829 6.20529
thorax -6.54504 -0.572311 4.06414
lowerneck -7.38024 -4.74918 -15.1343
upperneck -22.0499 -5.30709 28.0857
head -3.60111 -4.60806 12.234
rclavicle -1.09332e-014 -5.38706e-014
rhumerus -17.8423 -11.3121 -62.6416
rradius 51.2676
rwrist -17.9719
rhand -39.6051 52.6724
rfingers 7.12502
rthumb -12.5871 23.0716
lclavicle -1.09332e-014 -5.38706e-014
lhumerus -25.5907 -6.04489 43.3639
lradius 95.5875
lwrist 22.6215
lhand -31.759 4.98993
lfingers 7.12502
lthumb -5.01603 34.9106
rfemur -13.4754 -12.5507 4.66358
rtibia 31.3004
rfoot -2.57464 -23.0063
rtoes -29.9937
lfemur -56.5055 27.6609 -22.5371
ltibia 81.3844
lfoot -17.5143 -9.88952
ltoes 15.9914
537
root 16.1974 13.9315 -3.97498 -176.712 -16.5275 -165.467
lowerback 33.5867 2.34271 3.87755
upperback 9.73589 1.88103 6.31002
thorax -6.49208 -0.408595 4.05915
lowerneck -7.16304 -4.8146 -15.7956
upperneck -22.1193 -5.34473 28.129
head -3.62214 -4.56826 12.393
rclavicle -2.3059e-014 8.48811e-014
rhumerus -19.0427 -11.4743 -60.9144
rradius 51.6196
rwrist -17.47
rhand -39.6714 52.4431
rfingers 7.12502
rthumb -12.651 22.8462
lclavicle -2.3059e-014 8.48811e-014
lhumerus -26.7537 -7.33471 42.6988
lradius 96.0914
lwrist 21.8009
lhand -32.247 5.09422
lfingers 7.12502
lthumb -5.4872 35.0032
rfemur -15.5279 -14.4031 5.40874
rtibia 33.4946
rfoot 0.949152 -18.749
rtoes -40.8226
lfemur -55.9308 27.5804 -23.8274
ltibia 80.4776
lfoot -16.9165 -9.55197
ltoes 16.6075
538
root 15.9011 14.015 -3.97578 -176.227 -15.914 -165.662
lowerback 32.8619 2.43943 4.18773
upperback 9.53914 2.16896 6.3044
thorax -6.42568 -0.227719 3.78323
lowerneck -6.64548 -4.71997 -16.6748
upperneck -22.8497 -5.15786 28.3025
head -3.93237 -4.48733 12.745
rclavicle -5.19822e-014 -2.09718e-014
rhumerus -19.944 -11.9389 -59.2203
rradius 51.7781
rwrist -16.7604
rhand -39.6897 52.5569
rfingers 7.12502
rthumb -12.6686 22.9611
lclavicle -5.19822e-014 -2.09718e-014
lhumerus -27.8659 -8.56894 42.0377
lradius 96.536
lwrist 20.8943
lhand -32.8028 4.92558
lfingers 7.12502
lthumb -6.02385 34.8199
rfemur -17.9683 -16.5078 6.48279
rtibia 36.4126
rfoot 3.41826 -16.1018
rtoes -48.0625
lfemur -55.5084 27.758 -25.1853
ltibia 79.6876
lfoot -15.9921 -9.22661
ltoes 16.1623
539
root 15.6066 14.0904 -3.97103 -176.124 -15.221 -165.843
lowerback 32.6303 2.54351 4.70068
upperback 9.38588 2.4984 6.26119
thorax -6.47658 -0.0531 3.35232
lowerneck -5.98926 -4.7737 -17.6892
upperneck -23.4673 -5.17752 28.4817
head -4.17904 -4.47574 13.1094
rclavicle 2.65129e-014 -5.29264e-015
rhumerus -20.8254 -12.379 -57.5199
rradius 52.0542
rwrist -16.2119
rhand -39.6824 52.9134
rfingers 7.12502
rthumb -12.6616 23.3172
lclavicle 2.65129e-014 -5.29264e-015
lhumerus -29.1079 -9.64848 41.564
lradius 96.8594
lwrist 19.9843
lhand -33.4232 4.28251
lfingers 7.12502
lthumb -6.62276 34.1589
rfemur -20.2089 -18.4551 7.68388
rtibia 39.7793
rfoot 0.553524 -15.3195
rtoes -41.1647
lfemur -54.8472 28.227 -26.3228
ltibia 79.0343
lfoot -14.5635 -9.22138
ltoes 16.3889
540
root 15.3099 14.1763 -3.95939 -176.303 -14.5139 -166.223
lowerback 32.7552 2.49398 4.7606
upperback 9.49492 2.39231 6.00194
thorax -6.38044 -0.113483 3.08362
lowerneck -6.42048 -4.68303 -17.4648
upperneck -23.32 -5.08703 27.9952
head -4.12765 -4.38994 12.8427
rclavicle -1.98785e-015 1.49089e-015
rhumerus -20.787 -12.3952 -56.7446
rradius 52.3061
rwrist -15.8529
rhand -39.4816 53.6604
rfingers 7.12502
rthumb -12.468 24.0523
lclavicle -1.98785e-015 1.49089e-015
lhumerus -30.9503 -9.68216 40.7822
lradius 97.1949
lwrist 18.9085
lhand -34.0969 3.81474
lfingers 7.12502
lthumb -7.27307 33.6697
rfemur -22.1563 -20.3332 8.76597
rtibia 43.3478
rfoot -0.72318 -15.1273
rtoes -37.8463
lfemur -53.8769 28.742 -27.4388
ltibia 78.4511
lfoot -12.6525 -9.26873
ltoes 17.6801
541
root 15.008 14.273 -3.94087 -176.476 -13.8468 -166.374
lowerback 32.9483 2.41362 5.10989
upperback 9.52003 2.36272 5.77343
thorax -6.38522 -0.135693 2.66985
lowerneck -6.68759 -4.51062 -16.9679
upperneck -23.3032 -4.91814 27.1955
head -4.19461 -4.27578 12.4278
rclavicle -2.22639e-014 -1.963e-014
rhumerus -20.6022 -13.0238 -56.0321
rradius 52.2716
rwrist -15.1234
rhand -39.2325 54.3626
rfingers 7.12502
rthumb -12.2278 24.7401
lclavicle -2.22639e-014 -1.963e-014
lhumerus -32.892 -9.65772 40.3923
lradius 97.6042
lwrist 17.9105
lhand -34.6135 3.73596
lfingers 7.12502
lthumb -7.77169 33.5731
rfemur -24.2048 -22.1307 10.3471
rtibia 46.965
rfoot -0.665739 -15.1958
rtoes -41.3689
lfemur -53.1691 29.276 -28.3342
ltibia 77.9685
lfoot -10.2597 -9.23357
ltoes 16.9313
542
root 14.7112 14.3631 -3.91868 -176.447 -13.266 -166.26
lowerback 32.9703 2.28139 5.59879
upperback 9.4738 2.33532 5.66678
thorax -6.40019 -0.150597 2.31057
lowerneck -6.75634 -4.19969 -16.6572
upperneck -23.6055 -4.56757 26.518
head -4.41938 -4.10635 12.1564
rclavicle -2.65378e-014 -3.81667e-014
rhumerus -20.1117 -13.4476 -55.3247
rradius 52.0467
rwrist -14.7325
rhand -39.1334 54.9727
rfingers 7.12502
rthumb -12.1323 25.3444
lclavicle -2.65378e-014 -3.81667e-014
lhumerus -34.8 -9.54908 40.2071
lradius 97.953
lwrist 17.5885
lhand -34.9513 3.53403
lfingers 7.12502
lthumb -8.09777 33.3589
rfemur -26.55 -23.812 12.5046
rtibia 50.5484
rfoot -1.69444 -15.2305
rtoes -41.9493
lfemur -53.1264 29.9159 -29.125
ltibia 77.592
lfoot -7.31686 -9.39938
ltoes 13.512
